<?xml version="1.0" encoding="UTF-8" standalone="no"?>
<svg width="32" height="32" viewBox="0 0 32 32" xmlns="http://www.w3.org/2000/svg">
  <!-- FreelancePro SL Favicon -->
  
  <!-- Background shape -->
  <rect x="0" y="0" width="32" height="32" rx="4" fill="#0A2342" />
  
  <!-- F letter stylized -->
  <path d="M7 7 L20 7 L20 12 L12 12 L12 16 L18 16 L18 21 L12 21 L12 25 L7 25 Z" fill="#ffffff" />
  
  <!-- P letter stylized -->
  <path d="M21 7 C25 7 27 10 27 14 C27 18 25 21 21 21 L20 21 L20 25 L15 25 L15 7 Z" fill="#e63946" />
  <path d="M20 12 L20 16 L21 16 C22 16 22 15 22 14 C22 13 22 12 21 12 Z" fill="#ffffff" />
</svg>
