<?xml version="1.0" encoding="UTF-8" standalone="no"?>
<svg width="200" height="50" viewBox="0 0 200 50" xmlns="http://www.w3.org/2000/svg">
  <!-- FreelancePro SL Logo -->
  
  <!-- Background shape -->
  <rect x="0" y="5" width="45" height="40" rx="5" fill="#0A2342" />
  
  <!-- F letter stylized -->
  <path d="M10 15 L30 15 L30 22 L17 22 L17 28 L27 28 L27 35 L17 35 L17 45 L10 45 Z" fill="#ffffff" />
  
  <!-- P letter stylized -->
  <path d="M35 15 C42 15 45 20 45 25 C45 30 42 35 35 35 L33 35 L33 45 L26 45 L26 15 Z" fill="#e63946" />
  <path d="M33 22 L33 28 L35 28 C37 28 38 27 38 25 C38 23 37 22 35 22 Z" fill="#ffffff" />
  
  <!-- Text "FreelancePro" -->
  <text x="55" y="28" font-family="Arial, sans-serif" font-weight="bold" font-size="17" fill="#0A2342">FreelancePro</text>
  
  <!-- Text "SL" -->
  <text x="165" y="28" font-family="Arial, sans-serif" font-weight="bold" font-size="17" fill="#e63946">SL</text>
  
  <!-- Tagline -->
  <text x="55" y="40" font-family="Arial, sans-serif" font-size="9" fill="#555555">Connect with Sierra Leone's top talent</text>
</svg>
