<?xml version="1.0" encoding="UTF-8"?>
<svg width="400" height="300" viewBox="0 0 400 300" xmlns="http://www.w3.org/2000/svg">
  <!-- Background -->
  <rect x="0" y="0" width="400" height="300" fill="#f5f7fa" rx="16" ry="16" />
  
  <!-- Decorative elements -->
  <circle cx="200" cy="150" r="120" fill="#e1e8f0" />
  <circle cx="200" cy="150" r="80" fill="#ffffff" />
  
  <!-- Freelancer figure -->
  <rect x="175" y="90" width="50" height="70" fill="#0D8A6A" rx="8" ry="8" />
  <circle cx="200" cy="70" r="25" fill="#0D8A6A" />
  
  <!-- Computer/Laptop -->
  <rect x="140" y="170" width="120" height="70" fill="#1E40AF" rx="4" ry="4" />
  <rect x="150" y="180" width="100" height="50" fill="#ffffff" rx="2" ry="2" />
  
  <!-- Code/work symbols -->
  <line x1="160" y1="195" x2="190" y2="195" stroke="#0D8A6A" stroke-width="3" />
  <line x1="160" y1="205" x2="210" y2="205" stroke="#0D8A6A" stroke-width="3" />
  <line x1="160" y1="215" x2="200" y2="215" stroke="#0D8A6A" stroke-width="3" />
  <line x1="160" y1="225" x2="180" y2="225" stroke="#0D8A6A" stroke-width="3" />
  
  <!-- Connection lines -->
  <line x1="80" y1="120" x2="130" y2="150" stroke="#1E40AF" stroke-width="3" stroke-dasharray="8,4" />
  <line x1="320" y1="120" x2="270" y2="150" stroke="#1E40AF" stroke-width="3" stroke-dasharray="8,4" />
  <line x1="80" y1="180" x2="130" y2="150" stroke="#1E40AF" stroke-width="3" stroke-dasharray="8,4" />
  <line x1="320" y1="180" x2="270" y2="150" stroke="#1E40AF" stroke-width="3" stroke-dasharray="8,4" />
  
  <!-- Nodes/connection points -->
  <circle cx="80" cy="120" r="12" fill="#0D8A6A" />
  <circle cx="320" cy="120" r="12" fill="#0D8A6A" />
  <circle cx="80" cy="180" r="12" fill="#0D8A6A" />
  <circle cx="320" cy="180" r="12" fill="#0D8A6A" />
</svg>
