<svg width="800" height="600" viewBox="0 0 800 600" fill="none" xmlns="http://www.w3.org/2000/svg">
  <style>
    .small-circle { animation: float 3s ease-in-out infinite; }
    .medium-circle { animation: float 5s ease-in-out infinite 1s; }
    .large-circle { animation: float 7s ease-in-out infinite 0.5s; }
    @keyframes float {
      0%, 100% { transform: translateY(0); }
      50% { transform: translateY(-20px); }
    }
  </style>
  
  <!-- Background elements -->
  <circle cx="600" cy="100" r="50" fill="white" opacity="0.1" class="small-circle" />
  <circle cx="200" cy="450" r="80" fill="white" opacity="0.1" class="medium-circle" />
  <circle cx="700" cy="500" r="30" fill="white" opacity="0.1" class="small-circle" />
  <circle cx="300" cy="150" r="40" fill="white" opacity="0.1" class="small-circle" />
  
  <!-- Laptop -->
  <rect x="250" y="250" width="300" height="200" rx="10" fill="#ffffff" />
  <rect x="250" y="250" width="300" height="200" rx="10" stroke="#0A2342" stroke-width="8" />
  <rect x="270" y="270" width="260" height="160" rx="5" fill="#e63946" />
  
  <!-- Laptop stand -->
  <path d="M400 450 L300 500 L500 500 L400 450" fill="#0A2342" />
  
  <!-- Person -->
  <circle cx="400" cy="170" r="40" fill="#ffffff" />
  <path d="M370 220 C370 220, 350 300, 350 350 C350 400, 450 400, 450 350 C450 300, 430 220, 430 220" fill="#ffffff" />
  
  <!-- Lock and security elements -->
  <rect x="350" y="320" width="100" height="60" rx="5" fill="#ffffff" />
  <circle cx="400" cy="340" r="15" fill="#0A2342" />
  <rect x="390" y="340" width="20" height="25" rx="2" fill="#0A2342" />
  
  <!-- Connection lines -->
  <path d="M150 150 Q 250 100, 350 150" stroke="#ffffff" stroke-width="3" stroke-dasharray="5 5" />
  <path d="M450 150 Q 550 100, 650 150" stroke="#ffffff" stroke-width="3" stroke-dasharray="5 5" />
  <path d="M200 350 Q 250 300, 300 350" stroke="#ffffff" stroke-width="3" stroke-dasharray="5 5" />
  <path d="M500 350 Q 550 300, 600 350" stroke="#ffffff" stroke-width="3" stroke-dasharray="5 5" />
  
  <!-- Small icons -->
  <circle cx="150" cy="150" r="15" fill="#ffffff" />
  <circle cx="650" cy="150" r="15" fill="#ffffff" />
  <circle cx="200" cy="350" r="15" fill="#ffffff" />
  <circle cx="600" cy="350" r="15" fill="#ffffff" />
  
  <path d="M145 145 L155 155 M145 155 L155 145" stroke="#e63946" stroke-width="2" />
  <path d="M645 145 L655 155 M645 155 L655 145" stroke="#e63946" stroke-width="2" />
  <path d="M195 345 L205 355 M195 355 L205 345" stroke="#e63946" stroke-width="2" />
  <path d="M595 345 L605 355 M595 355 L605 345" stroke="#e63946" stroke-width="2" />
</svg>
