<?xml version="1.0" encoding="UTF-8" standalone="no"?>
<svg width="50" height="50" viewBox="0 0 50 50" xmlns="http://www.w3.org/2000/svg">
  <!-- FreelancePro SL Mobile Logo -->
  
  <!-- Background shape -->
  <rect x="2.5" y="5" width="45" height="40" rx="5" fill="#0A2342" />
  
  <!-- F letter stylized -->
  <path d="M12.5 15 L32.5 15 L32.5 22 L19.5 22 L19.5 28 L29.5 28 L29.5 35 L19.5 35 L19.5 45 L12.5 45 Z" fill="#ffffff" />
  
  <!-- P letter stylized -->
  <path d="M37.5 15 C44.5 15 47.5 20 47.5 25 C47.5 30 44.5 35 37.5 35 L35.5 35 L35.5 45 L28.5 45 L28.5 15 Z" fill="#e63946" />
  <path d="M35.5 22 L35.5 28 L37.5 28 C39.5 28 40.5 27 40.5 25 C40.5 23 39.5 22 37.5 22 Z" fill="#ffffff" />
</svg>
